<?xml version="1.0" encoding="UTF-8"?>
<!DOCTYPE svg PUBLIC "-//W3C//DTD SVG 1.1//EN" "http://www.w3.org/Graphics/SVG/1.1/DTD/svg11.dtd">
<!-- Creator: CorelDRAW 2021.5 (Оценочная версия) -->
<svg xmlns="http://www.w3.org/2000/svg" xml:space="preserve" width="156mm" height="156mm" version="1.1" style="shape-rendering:geometricPrecision; text-rendering:geometricPrecision; image-rendering:optimizeQuality; fill-rule:evenodd; clip-rule:evenodd"
viewBox="0 0 15600 15600"
 xmlns:xlink="http://www.w3.org/1999/xlink"
 xmlns:xodm="http://www.corel.com/coreldraw/odm/2003">
 <defs>
  <style type="text/css">
   <![CDATA[
    .str1 {stroke:#EBECEC;stroke-width:20;stroke-miterlimit:22.9256}
    .str0 {stroke:#2B2A29;stroke-width:20;stroke-miterlimit:22.9256}
    .str4 {stroke:#2B2A29;stroke-width:17.64;stroke-miterlimit:22.9256}
    .str2 {stroke:#2B2A29;stroke-width:20;stroke-miterlimit:22.9256}
    .str3 {stroke:#2B2A29;stroke-width:17.64;stroke-miterlimit:22.9256}
    .fil3 {fill:none}
    .fil2 {fill:#D9DADA}
    .fil4 {fill:#CDCDCE}
    .fil0 {fill:#7A5980}
    .fil1 {fill:#321F37}
   ]]>
  </style>
 </defs>
 <g id="Слой_x0020_1">
  <metadata id="CorelCorpID_0Corel-Layer"/>
  <path class="fil0 str0" d="M7795.87 178.51c4197.68,0 7600.58,3402.9 7600.58,7600.58 0,1569.22 -475.67,3027.28 -1290.53,4238.11 -4317.37,-1006.13 -8524.77,-1007.19 -12622.21,-3.2 -813.55,-1210.2 -1288.42,-2667.06 -1288.42,-4234.91 0,-4197.68 3402.9,-7600.58 7600.58,-7600.58zm6310.05 11838.69c-1.98,2.94 -3.87,5.95 -5.85,8.89 -1365.66,2023.18 -3679.56,3353.58 -6304.2,3353.58 -2628.9,0 -4945.94,-1334.78 -6310.73,-3363.5l-1.43 -2.17c4097.44,-1003.99 8304.84,-1002.93 12622.21,3.2z"/>
  <path class="fil1" d="M195.29 7779.09c0,1567.85 474.87,3024.71 1288.42,4234.91 4097.44,-1003.99 8304.84,-1002.93 12622.21,3.2 814.86,-1210.83 1290.53,-2668.89 1290.53,-4238.11 0,-4197.68 -3402.9,-7600.58 -7600.58,-7600.58 -4197.68,0 -7600.58,3402.9 -7600.58,7600.58z"/>
  <polygon class="fil2 str0" points="7086.33,2448.2 7127.69,2576.32 7262.33,2576.06 7153.25,2654.99 7195.1,2782.96 7086.33,2703.61 6977.56,2782.96 7019.41,2654.99 6910.33,2576.06 7044.97,2576.32 "/>
  <polygon class="fil2 str0" points="4189.03,1991.89 4264.57,2225.92 4510.48,2225.44 4311.26,2369.6 4387.7,2603.33 4189.03,2458.41 3990.36,2603.33 4066.8,2369.6 3867.58,2225.44 4113.49,2225.92 "/>
  <path class="fil3 str0" d="M8537.1 7725.5l-2024.61 5196.59m-333.36 0l1998.13 -5203.08 1016.82 -234.82 1957.62 6160.82m-5097.24 -722.61l606.51 0m2259.91 -5375.13l-1841.51 7160.63m-483.19 -0.04l634.1 0m1331.51 -7077.66l-1825.63 7077.66m3939.17 -1062.85l585.71 0m-2349.79 -6060.33l1890.26 6060.33m-3058.35 -3880.45l213.07 213.09m-259 -95.11l224.67 228.05m336.3 22.7l1344.41 -327.26m-1315.22 215.75l1284.88 -312.88m-1216.62 46.33l1028.73 -0.58m177.37 -79.36l-1185.55 0m-629.42 79.94l266.78 0m20.62 -79.94l-256.99 0.62m1331.07 -2415.27l52.95 229.32"/>
  <g>
   <path class="fil2" d="M12608.51 3716.71c719.77,150.77 973.04,613.75 729.86,1303.41l-729.86 -1303.41zm-3216.6 1806.65l732.97 1303.61 3215.78 -1808.12 -732.97 -1303.61 -3215.78 1808.12zm-2684.23 1825.04l56.08 -315.03 1910.97 -937 605.98 1077.8 -1893.56 928.49 -309.66 -71.11 -369.81 -683.15zm-648.73 333.21l479.93 169.87 -137.72 475.07 -342.21 -644.94zm-1441.84 774.39l337.77 637.14 1440.35 -768.42 -337.78 -637.12 -1440.34 768.4zm337.77 637.14c-122.16,-59.38 -227.14,-163.6 -283.65,-250.53 -70.81,-108.96 -89.43,-238.72 -54.12,-386.61l337.77 637.14z"/>
   <path id="_1" class="fil3 str0" d="M12608.51 3716.71c719.77,150.77 973.04,613.75 729.86,1303.41m-3946.46 503.24l732.97 1303.61 3215.78 -1808.12 -732.97 -1303.61 -3215.78 1808.12zm-2684.23 1825.04l56.08 -315.03 1910.97 -937 605.98 1077.8 -1893.56 928.49 -309.66 -71.11 -369.81 -683.15zm-648.73 333.21l479.93 169.87 -137.72 475.07m-1784.05 129.45l337.77 637.14 1440.35 -768.42 -337.78 -637.12 -1440.34 768.4zm337.77 637.14c-122.16,-59.38 -227.14,-163.6 -283.65,-250.53 -70.81,-108.96 -89.43,-238.72 -54.12,-386.61"/>
  </g>
  <polygon class="fil2 str0" points="6043.56,4372.24 6080.86,4487.78 6202.27,4487.54 6103.91,4558.72 6141.65,4674.11 6043.56,4602.56 5945.47,4674.11 5983.21,4558.72 5884.85,4487.54 6006.26,4487.78 "/>
  <polygon class="fil2 str0" points="5605.47,4524.56 5649.56,4661.17 5793.11,4660.89 5676.81,4745.04 5721.44,4881.48 5605.47,4796.88 5489.5,4881.48 5534.13,4745.04 5417.83,4660.89 5561.38,4661.17 "/>
  <polygon class="fil2 str0" points="5091.22,4655.43 5144.73,4821.19 5318.93,4820.86 5177.8,4922.98 5231.95,5088.55 5091.22,4985.88 4950.49,5088.55 5004.64,4922.98 4863.51,4820.86 5037.71,4821.19 "/>
  <polygon class="fil2 str0" points="6871.69,6373.71 6924.97,6538.77 7098.42,6538.43 6957.9,6640.11 7011.82,6804.97 6871.69,6702.75 6731.56,6804.97 6785.48,6640.11 6644.96,6538.43 6818.41,6538.77 "/>
  <polygon class="fil2 str0" points="4325.25,6834.87 4380.31,7005.43 4559.53,7005.09 4414.33,7110.15 4470.05,7280.5 4325.25,7174.88 4180.45,7280.5 4236.17,7110.15 4090.97,7005.09 4270.19,7005.43 "/>
  <polygon class="fil2 str0" points="2371.99,8222.67 2432.37,8409.74 2628.95,8409.36 2469.69,8524.6 2530.8,8711.43 2371.99,8595.58 2213.18,8711.43 2274.29,8524.6 2115.03,8409.36 2311.61,8409.74 "/>
  <line class="fil3 str1" x1="4311.26" y1="2369.6" x2="7044.97" y2= "2576.32" />
  <line class="fil3 str1" x1="6080.86" y1="4487.78" x2="7086.33" y2= "2703.61" />
  <line class="fil3 str1" x1="4189.03" y1="2458.41" x2="5037.71" y2= "4821.19" />
  <line class="fil3 str1" x1="5091.22" y1="4985.88" x2="4325.25" y2= "6834.87" />
  <line class="fil3 str1" x1="4236.17" y1="7110.15" x2="2432.37" y2= "8409.74" />
  <line class="fil3 str1" x1="4559.53" y1="7005.09" x2="6785.48" y2= "6640.11" />
  <line class="fil3 str1" x1="6871.69" y1="6373.71" x2="6043.56" y2= "4602.56" />
  <line class="fil3 str1" x1="5318.93" y1="4820.86" x2="5534.12" y2= "4745.04" />
  <line class="fil3 str1" x1="5793.1" y1="4660.88" x2="5983.21" y2= "4558.72" />
  <polygon class="fil2 str0" points="3806.06,1693.8 3848.45,1825.13 3986.45,1824.87 3874.65,1905.77 3917.55,2036.94 3806.06,1955.62 3694.57,2036.94 3737.47,1905.77 3625.67,1824.87 3763.67,1825.13 "/>
  <line class="fil3 str1" x1="3874.65" y1="1905.77" x2="4113.49" y2= "2225.92" />
  <polygon class="fil2 str0" points="8369.22,1372.43 8423.35,1540.1 8599.54,1539.76 8456.8,1643.06 8511.57,1810.52 8369.22,1706.68 8226.87,1810.52 8281.64,1643.06 8138.9,1539.76 8315.09,1540.1 "/>
  <polygon class="fil2 str0" points="8673.67,3448.21 8730.89,3625.47 8917.15,3625.11 8766.25,3734.3 8824.15,3911.34 8673.67,3801.56 8523.19,3911.34 8581.09,3734.3 8430.19,3625.11 8616.45,3625.47 "/>
  <line class="fil3 str1" x1="9225.37" y1="2457.01" x2="7153.25" y2= "2654.99" />
  <polygon class="fil2 str0" points="9012.22,1814.54 9041.24,1904.43 9135.69,1904.25 9059.17,1959.62 9088.53,2049.4 9012.22,1993.73 8935.91,2049.4 8965.27,1959.62 8888.75,1904.25 8983.2,1904.43 "/>
  <polygon class="fil2 str0" points="9098.78,2947.57 9130.43,3045.63 9233.48,3045.43 9150,3105.84 9182.03,3203.78 9098.78,3143.05 9015.53,3203.78 9047.56,3105.84 8964.08,3045.43 9067.13,3045.63 "/>
  <line class="fil3 str1" x1="8730.89" y1="3625.47" x2="9015.53" y2= "3203.78" />
  <line class="fil3 str1" x1="8456.8" y1="1643.06" x2="8888.75" y2= "1904.25" />
  <polyline class="fil3 str1" points="9114.6,2996.6 9225.37,2457.01 9012.22,1993.73 "/>
  <g id="_1400370965632">
   <line class="fil3 str2" x1="9108.26" y1="7260.64" x2="8177.26" y2= "7719.01" />
  </g>
  <g id="_1400370959152">
   <line class="fil3 str2" x1="8287.39" y1="10021.78" x2="8265.09" y2= "10097.29" />
  </g>
  <g id="_1400370956080">
   <line class="fil3 str2" x1="8376.2" y1="9675.29" x2="8355.65" y2= "9755.23" />
  </g>
  <g id="_1400370948784">
   <line class="fil3 str3" x1="7777.19" y1="9675.91" x2="7746.78" y2= "9755.23" />
  </g>
  <g id="_1400370947776">
   <line class="fil3 str3" x1="8034.18" y1="9675.29" x2="8013.56" y2= "9755.23" />
  </g>
  <g id="_1400370946816">
   <line class="fil3 str3" x1="7743.16" y1="9764.56" x2="7697.23" y2= "9882.54" />
  </g>
  <g id="_1400296412432">
   <line class="fil3 str3" x1="7921.9" y1="10110.59" x2="7956.23" y2= "9977.65" />
  </g>
  <g id="_1400296403984">
   <line class="fil3 str3" x1="8287.39" y1="10021.78" x2="8265.09" y2= "10097.29" />
  </g>
  <g id="_1400296400432">
   <line class="fil3 str3" x1="8355.65" y1="9755.23" x2="8376.2" y2= "9675.29" />
  </g>
  <g id="_1400296400624">
   <line class="fil3 str3" x1="9387.38" y1="9753.92" x2="9572.27" y2= "9708.9" />
  </g>
  <g id="_1400296398128">
   <line class="fil3 str3" x1="9561.75" y1="9675.29" x2="9572.27" y2= "9708.9" />
  </g>
  <g id="_1400296463888">
   <line class="fil3 str3" x1="9602.61" y1="9806.03" x2="9430.31" y2= "9765.69" />
  </g>
  <g id="_1400296460288">
   <line class="fil3 str3" x1="8258.2" y1="10133.29" x2="8145.43" y2= "10078.57" />
  </g>
  <g id="_1400296457360">
   <line class="fil3 str3" x1="8177.26" y1="7719.01" x2="8561.79" y2= "7630.2" />
  </g>
  <g id="_1400296454480">
   <line class="fil3 str3" x1="6179.13" y1="12922.09" x2="6512.49" y2= "12922.09" />
  </g>
  <g id="_1400296446704">
   <line class="fil3 str3" x1="9108.26" y1="7260.64" x2="8177.26" y2= "7719.01" />
  </g>
  <g id="_1400296445168">
   <line class="fil3 str3" x1="9161.21" y1="7489.96" x2="8035.3" y2= "7775.8" />
  </g>
  <g id="_1400296443872">
   <line class="fil3 str3" x1="8966.3" y1="7317.43" x2="9161.21" y2= "7489.96" />
  </g>
  <g id="_1400296443152">
   <line class="fil3 str3" x1="6057.45" y1="7687.6" x2="6401.16" y2= "8326.55" />
  </g>
  <g id="_1400296439600">
   <line class="fil3 str3" x1="6538.88" y1="7851.48" x2="6057.45" y2= "7687.6" />
  </g>
  <g id="_1400296436912">
   <line class="fil3 str3" x1="6401.16" y1="8326.55" x2="6538.88" y2= "7851.48" />
  </g>
  <g id="_1400296428848">
   <line class="fil3 str3" x1="8911.25" y1="7584.68" x2="8920.88" y2= "7547.27" />
  </g>
  <g id="_1400296426112">
   <line class="fil3 str3" x1="8537.1" y1="7725.5" x2="8419.83" y2= "7686.99" />
  </g>
  <g id="_1400296425920">
   <line class="fil3 str3" x1="6064.88" y1="12922.4" x2="6646.01" y2= "12922.4" />
  </g>
  <g id="_1400296422176">
   <line class="fil3 str3" x1="6596.18" y1="14707.86" x2="7230.28" y2= "14707.86" />
  </g>
  <g id="_1400296422848">
   <line class="fil3 str3" x1="6064.88" y1="12922.4" x2="6646.01" y2= "12922.4" />
  </g>
  <g id="_1400296423664">
   <line class="fil3 str3" x1="10675.33" y1="13645.01" x2="11261.04" y2= "13645.01" />
  </g>
  <polygon class="fil4" points="7816.96,11839.8 8265.09,10097.29 8911.25,7584.68 8920.88,7547.28 8561.79,7630.2 8537.2,7725.53 8034.27,9675.31 8013.65,9755.25 7956.28,9977.66 7921.99,10110.61 7476.48,11837.77 6736.16,14707.86 7079.37,14707.9 "/>
  <polygon class="fil4" points="6932.66,11843.63 7775.75,9679.66 7777.21,9675.91 8537.2,7725.53 8561.79,7630.21 8177.26,7719.01 6589.64,11853.13 6179.13,12922.09 6512.49,12922.09 "/>
  <polygon class="fil4" points="8911.25,7584.68 10283.39,11983.88 10801.51,13645.01 11151.7,13645.01 10636.25,12022.84 9194.08,7484.19 8920.88,7547.28 "/>
  <polygon class="fil4" points="9384.38,9754.65 8287.41,10021.78 8258.2,10133.29 9602.61,9806.03 9572.27,9708.9 9387.38,9753.92 "/>
  <polygon class="fil4" points="8355.65,9755.23 9384.38,9754.65 9387.38,9753.92 9572.27,9708.9 9561.75,9675.29 8376.21,9675.29 "/>
  <polygon class="fil4" points="8013.65,9755.25 8034.18,9675.29 7777.21,9675.91 7775.75,9679.66 7746.78,9755.23 "/>
  <polygon class="fil4" points="7956.23,9977.65 7743.16,9764.56 7697.23,9882.54 7921.99,10110.61 "/>
  <g id="_1400289549200">
   <line class="fil3 str3" x1="8177.26" y1="7719.01" x2="9195.23" y2= "7487.81" />
  </g>
  <polygon class="fil4" points="8178.07,7718.61 9161.21,7489.96 9108.26,7260.64 "/>
  <path class="fil3 str4" d="M9190.86 7488.61c0.86,-0.12 6.65,-0.86 7.17,-1.3"/>
  <path class="fil4" d="M12608.52 3716.71l731.01 1300.12c241.21,-687.84 -12.39,-1149.59 -731.01,-1300.12z"/>
  <path class="fil4" d="M4954.88 9093.14l-337.77 -637.14c-35.31,147.89 -16.69,277.65 54.12,386.61 56.51,86.93 161.49,191.15 283.65,250.53z"/>
  <g id="_1400289526352">
   <line class="fil3 str3" x1="10675.33" y1="13645.01" x2="11261.04" y2= "13645.01" />
  </g>
  <g id="_1400289517328">
   <line class="fil3 str3" x1="6596.18" y1="14707.86" x2="7230.28" y2= "14707.86" />
  </g>
  <g id="_1400289517568">
   <line class="fil3 str3" x1="6054.46" y1="12922.4" x2="6660.97" y2= "12922.4" />
  </g>
 </g>
</svg>
