<?xml version="1.0" standalone="no"?>
<!DOCTYPE svg PUBLIC "-//W3C//DTD SVG 20010904//EN"
 "http://www.w3.org/TR/2001/REC-SVG-20010904/DTD/svg10.dtd">
<svg version="1.0" xmlns="http://www.w3.org/2000/svg"
 width="700.000000pt" height="700.000000pt" viewBox="0 0 700.000000 700.000000"
 preserveAspectRatio="xMidYMid meet">
<metadata>
Created by potrace 1.14, written by Peter Selinger 2001-2017
</metadata>
<g transform="translate(0.000000,700.000000) scale(0.100000,-0.100000)"
fill="#000000" stroke="none">
<path d="M3377 6924 c-1 -1 -51 -4 -112 -8 -608 -37 -1216 -253 -1737 -617
-57 -39 -105 -74 -108 -78 -3 -3 -38 -32 -77 -64 -259 -206 -511 -486 -710
-788 -301 -457 -504 -1059 -540 -1604 -9 -137 -9 -377 0 -510 11 -147 11 -146
54 -410 11 -66 83 -336 116 -430 102 -298 239 -572 414 -828 41 -60 78 -114
83 -120 295 -364 507 -567 815 -779 410 -282 923 -484 1405 -553 63 -9 125
-18 138 -20 139 -23 644 -23 760 0 11 2 43 6 73 10 48 6 155 24 244 40 75 15
279 69 370 100 496 165 928 427 1302 789 410 396 697 852 873 1386 60 179 82
267 114 440 28 153 34 202 51 385 6 64 6 421 0 500 -4 50 -19 181 -30 260 -66
469 -274 997 -553 1405 -132 193 -215 293 -405 485 -370 376 -820 659 -1316
827 -130 44 -392 114 -467 124 -27 3 -52 8 -55 9 -10 6 -241 34 -339 41 -80 6
-358 12 -363 8z"/>
</g>
</svg>
